#!OML:ASF E:/inclinewalkrobotboard/Project1/Captureday1/Session1/subject1.ASF
:FULLY-SPECIFIED
:DEGREES
388
root 0 0 0 -1.134999067889738 -2.8537145046455445 -0.8470104187976097
lowerback 10.95865823956968 0.564687634545751 0.46147683601840117
upperback -1.1474987751753218 0.8818403283536713 0.8977066220616029
thorax -7.337009752004706 0.40636122933060514 0.4357561574502724
lowerneck -13.32550332276491 -1.3762310857236852 0.26186924248230087
upperneck 19.04314516489813 -1.358797723829234 -2.4152661007463383
head 8.197692502046243 -0.7891485577023634 -1.0283172877240405
rclavicle -4.553519699364784E-16 -2.5477202339887074E-16
rhumerus -11.260443877184887 -6.430648268418317 -66.95564238159518
rradius 43.440303007725
rwrist 12.25982857696037
rhand -23.77542171607643 -6.377104878161893
rfingers 7.125020000000132
rthumb 2.9257807501168056 -36.52553844684252
lclavicle -9.361699587282144E-16 -8.248374681417844E-16
lhumerus -10.769874252778743 -4.501926151433781 67.54196460656148
lradius 44.96851301523773
lwrist -5.970088998223379
lhand -33.87203939251432 -13.715600241181162
lfingers 7.125020000000123
lthumb -7.142483200753711 15.36754485888546
rfemur -32.54963153939194 1.3671841554902624 17.620452050751577
rtibia 51.44757355557827
rfoot 1.6852870309617405 -8.468253955253992
rtoes 3.7728630615993124
lfemur 18.40374726147948 -3.4020640699011233 -31.217936467018838
ltibia 22.357994761985406
lfoot -11.574078961697 -6.914581180347964
ltoes -6.16564047877522
389
root 0 0 0 -1.136441731952436 -2.853166997835272 -0.848783342169567
lowerback 10.957995106787408 0.5643734633091712 0.46167553127950983
upperback -1.1453469909799734 0.8816547800310359 0.8987234333330155
thorax -7.334482043108118 0.40623776317110133 0.43660738589349835
lowerneck -13.329606591206078 -1.3781466698550873 0.2593273610287367
upperneck 19.04295624732311 -1.3620249518567844 -2.411810065282904
head 8.198461737680764 -0.7904431686835224 -1.0270164305471783
rclavicle -4.560527551394208E-16 -2.572016111046182E-16
rhumerus -11.23285523936414 -6.413383587991213 -66.93831542314689
rradius 43.46635349102425
rwrist 12.273261920552054
rhand -23.784557998484086 -6.422614092079236
rfingers 7.125020000000132
rthumb 2.916597505786385 -36.57173931593125
lclavicle -9.313185405588947E-16 -8.261586316099382E-16
lhumerus -10.648116942807347 -4.532024645463733 67.4552160941141
lradius 45.06534796195657
lwrist -6.035790716569071
lhand -33.91439523094433 -13.941141031815683
lfingers 7.125020000000122
lthumb -7.182695427431996 15.14774790031026
rfemur -32.436571647893416 2.087314355212191 17.987609280439237
rtibia 46.58776011935612
rfoot 0.05362515975676807 -8.992267502268508
rtoes 2.825370331106698
lfemur 19.10125524097223 -3.088392925699738 -31.197900865423442
ltibia 24.858452268689206
lfoot -10.586332198562776 -8.061948421493156
ltoes -6.749009226524675
390
root 0 0 0 -1.1403015335015767 -2.8520316703407684 -0.8531235649648756
lowerback 10.956436655451926 0.5638262166234191 0.46277928348436703
upperback -1.14017965477933 0.881357812885935 0.9010886811818958
thorax -7.327959332755938 0.4060025996775403 0.4385688652224913
lowerneck -13.340559048964407 -1.3829386005421358 0.2527424730594798
upperneck 19.043152105951435 -1.369514510741554 -2.4026424013344965
head 8.200479341164955 -0.7935894319130683 -1.023605041586931
rclavicle -4.567865304480465E-16 -2.574091448738547E-16
rhumerus -11.248042782976633 -6.424351171297586 -66.94754757954497
rradius 43.45177415680855
rwrist 12.266307458307962
rhand -23.77935890343966 -6.397774031506836
rfingers 7.125020000000132
rthumb 2.9219546256221998 -36.54857592396159
lclavicle -9.28585421166315E-16 -8.263082963138891E-16
lhumerus -10.617660961164322 -4.53989242298802 67.43382198935471
lradius 45.08939754132533
lwrist -6.051721058529378
lhand -33.92522034429182 -13.99933428371896
lfingers 7.125020000000122
lthumb -7.192792972649953 15.093935460015109
rfemur -31.11761175903881 2.9928444309271014 18.88111988476853
rtibia 41.242996783907245
rfoot -1.9697084152905742 -9.323643548958612
rtoes 1.9897639850953486
lfemur 19.355423867392126 -2.7936359681131657 -31.01880182115535
ltibia 27.262676809745173
lfoot -9.5527713002313 -9.070183442524417
ltoes -7.197434083576931
391
root 0 0 0 -1.1467104152944898 -2.8502702687443455 -0.8601757777784298
lowerback 10.953936598199046 0.5630407107615156 0.46489488593666844
upperback -1.1318232540466062 0.8809411273337071 0.904866613958607
thorax -7.3172072449435 0.4056486544667804 0.44169645288941806
lowerneck -13.358803616589162 -1.39078616816633 0.24189550669301768
upperneck 19.04376090689674 -1.3815221723154556 -2.3873932090303196
head 8.203814519796715 -0.7987070063472237 -1.0179437222604786
rclavicle -4.575087789778872E-16 -2.5506085813746266E-16
rhumerus -11.311601132863046 -6.467163318220846 -66.98683475270245
rradius 43.39111195510579
rwrist 12.236245295190985
rhand -23.757912559741474 -6.2933683500270465
rfingers 7.125020000000132
rthumb 2.9437734188190308 -36.446711194463546
lclavicle -9.288015185061325E-16 -8.252726211154367E-16
lhumerus -10.697635899454674 -4.520838348085401 67.49155425691298
lradius 45.025467989708254
lwrist -6.007505535266809
lhand -33.89783461832037 -13.854726286367985
lfingers 7.125020000000123
lthumb -7.166420404209401 15.240943697189094
rfemur -28.116909196650454 4.146682794485794 20.511902264151487
rtibia 35.267204299148446
rfoot -4.556804403154656 -9.385361411834925
rtoes 1.3060481091073266
lfemur 19.104775942988944 -2.50815361220822 -30.632606290265727
ltibia 29.6736997354257
lfoot -8.398175192578302 -9.969086327563431
ltoes -7.523829795759531
392
root 0 0 0 -1.155784867428923 -2.8478539934500797 -0.870075459012565
lowerback 10.950453484989977 0.5620137837198889 0.4681456119302898
upperback -1.1201256225813396 0.8803900847474012 0.9101122305939386
thorax -7.302024919619296 0.4051680672736607 0.4460285619950297
lowerneck -13.384754638240315 -1.4018640228047998 0.2266165675176292
upperneck 19.04478628396108 -1.3982961751140903 -2.3657130300425906
head 8.208522920920977 -0.805911666200323 -1.0098988335602632
rclavicle -4.582767018249244E-16 -2.496707113856675E-16
rhumerus -11.429658377378185 -6.545841722623986 -67.06004830136362
rradius 43.27829270017879
rwrist 12.180075166558993
rhand -23.718089444550642 -6.099175141941311
rfingers 7.1250200000001325
rthumb 2.9842089675584402 -36.25578753457852
lclavicle -9.329181491294669E-16 -8.2308392100644525E-16
lhumerus -10.906469106553631 -4.470388479042162 67.64162817317433
lradius 44.8588544837416
lwrist -5.893041768370842
lhand -33.82587627106129 -13.473182990925906
lfingers 7.125020000000124
lthumb -7.097530892402604 15.622597439845114
rfemur -22.74659351770912 5.615909426992943 23.173393114826524
rtibia 28.61473435084099
rfoot -7.915021481212289 -9.051722901299199
rtoes 0.8604667626361671
lfemur 18.146133683597014 -2.1972736817853464 -29.90725217852743
ltibia 32.424433765690544
lfoot -6.911620843665165 -10.847742467387114
ltoes -7.739044687520218
393
root 0 0 0 -1.1670024765625997 -2.8449461239572766 -0.8822629824806415
lowerback 10.94619603184611 0.5608178104580872 0.47246281170940496
upperback -1.1057790744476796 0.8797334686304846 0.9165034104410358
thorax -7.283292606729368 0.4045857912043262 0.4512800052093259
lowerneck -13.416990796438656 -1.4155727567592278 0.20785627963676162
upperneck 19.046132430802995 -1.4188818156764311 -2.3387777690439684
head 8.21431610554852 -0.8148047663619243 -0.9999021999173442
rclavicle -4.592493879003655E-16 -2.4119587132388304E-16
rhumerus -11.597038832739688 -6.656794931621893 -67.16409912109005
rradius 43.11804922626682
rwrist 12.100183871484207
rhand -23.66158514905256 -5.8232934751315675
rfingers 7.125020000000133
rthumb 3.04162283984558 -35.98364719126512
lclavicle -9.417160199835694E-16 -8.199820356109872E-16
lhumerus -11.24364625056009 -4.388683827312468 67.8835869474422
lradius 44.589881308814
lwrist -5.708371522484602
lhand -33.70956347445556 -12.854968045996058
lfingers 7.1250200000001245
lthumb -6.986362670830054 16.2380357551299
rfemur -14.664221662960419 7.29962132707983 26.935326433093394
rtibia 22.194312488073663
rfoot -11.85110814962735 -8.171424991897453
rtoes 0.8749844263398179
lfemur 15.83877456679568 -1.783179994615463 -28.486382416351077
ltibia 36.26500252770391
lfoot -4.608200418796731 -11.860517225707625
ltoes -7.80946818338642
394
root 0 0 0 -1.1780056168014572 -2.842266152013019 -0.8940783030792678
lowerback 10.942109343047086 0.5597477794823407 0.47711613122555685
upperback -1.091965934191347 0.8791748577797776 0.9226319685630103
thorax -7.26506868637877 0.4040341792431574 0.45626314490205855
lowerneck -13.448617067762738 -1.4289669961527258 0.18973111958860428
upperneck 19.04754070804798 -1.438692579129446 -2.312318373123424
head 8.219933603542467 -0.8234376636241194 -0.9900941326141204
rclavicle -4.604852452759472E-16 -2.320677453178857E-16
rhumerus -11.767954353365516 -6.769071054585951 -67.27075376142663
rradius 42.95423775426506
rwrist 12.018512723354739
rhand -23.603919433450777 -5.540583128999556
rfingers 7.125020000000133
rthumb 3.1005212489193363 -35.70429346765892
lclavicle -9.541622192384545E-16 -8.168374547073643E-16
lhumerus -11.643437546315287 -4.291581062537848 68.1702099363409
lradius 44.2706797691744
lwrist -5.489053897322073
lhand -33.5714855814216 -12.11903972533409
lfingers 7.125020000000126
lthumb -6.854527013624992 16.96616849169933
rfemur -5.212598646382846 8.68772673445256 31.024338695914984
rtibia 18.745374385511603
rfoot -15.075932202762242 -6.7152658697323035
rtoes 1.7359800470143238
lfemur 10.806380499244552 -1.134603055122115 -25.690168565654844
ltibia 42.356409029722364
lfoot -0.7756741005771541 -13.12076258779026
ltoes -7.599982842705122
